<?xml version="1.0" standalone="no"?>
<!DOCTYPE svg PUBLIC "-//W3C//DTD SVG 20010904//EN"
 "http://www.w3.org/TR/2001/REC-SVG-20010904/DTD/svg10.dtd">
<svg version="1.0" xmlns="http://www.w3.org/2000/svg"
 width="470.000000pt" height="470.000000pt" viewBox="0 0 470.000000 470.000000"
 preserveAspectRatio="xMidYMid meet">
<metadata>
Created by potrace 1.11, written by Peter Selinger 2001-2013
</metadata>
<g transform="translate(0.000000,470.000000) scale(0.100000,-0.100000)"
fill="#000000" stroke="none">
<path d="M1990 4560 c-16 -16 -26 -18 -64 -11 -24 4 -60 8 -80 7 -20 -1 -36 4
-36 9 0 7 -3 7 -8 0 -4 -5 -25 -10 -47 -9 -22 0 -46 -4 -54 -10 -8 -6 -16 -10
-18 -8 -1 1 -4 2 -5 1 -2 0 -11 -2 -21 -4 -28 -5 -107 -55 -107 -67 0 -6 -3
-9 -6 -5 -5 5 -16 -3 -65 -49 -5 -5 -28 -29 -51 -54 -23 -25 -46 -44 -51 -42
-5 1 -6 -1 -3 -6 10 -17 -44 -62 -77 -63 -18 0 -41 -2 -52 -4 -11 -3 -37 -6
-57 -7 -21 -2 -38 -7 -38 -12 0 -4 -7 -5 -16 -2 -8 3 -13 2 -10 -3 3 -5 -12
-8 -34 -7 -23 1 -41 -3 -44 -10 -2 -6 -17 -15 -32 -18 -59 -15 -171 -119 -189
-175 -3 -12 -11 -21 -16 -21 -6 0 -8 -4 -4 -9 3 -5 1 -12 -5 -16 -6 -4 -8 -11
-5 -16 4 -5 1 -9 -4 -9 -6 0 -11 -3 -10 -7 3 -19 -15 -53 -26 -53 -8 0 -21 -8
-31 -17 -10 -10 -18 -17 -18 -15 -3 12 -52 -19 -121 -77 -42 -36 -105 -136
-105 -167 0 -9 -5 -12 -12 -8 -6 4 -8 3 -5 -3 4 -6 2 -25 -3 -43 -5 -18 -10
-50 -12 -71 -1 -22 -5 -39 -8 -39 -3 0 -6 -10 -7 -22 -1 -13 -2 -47 -3 -76 -2
-47 -7 -57 -48 -100 -25 -26 -49 -46 -54 -44 -4 1 -8 -2 -8 -8 0 -5 -14 -23
-30 -40 -17 -17 -30 -35 -30 -41 0 -6 -3 -8 -7 -6 -5 3 -14 -1 -21 -9 -7 -8
-9 -14 -5 -14 4 0 -1 -7 -11 -15 -11 -8 -16 -15 -11 -15 4 0 0 -10 -11 -22
-13 -14 -14 -19 -4 -14 9 5 8 2 -2 -7 -10 -8 -15 -17 -11 -20 3 -4 2 -7 -3 -7
-5 0 -11 -11 -12 -26 -1 -14 -5 -33 -10 -42 -13 -30 -3 -180 16 -232 9 -24 -2
-78 -18 -90 -7 -5 -53 -126 -57 -150 -11 -62 0 -165 22 -215 10 -22 18 -46 18
-52 0 -7 3 -13 7 -13 3 0 12 -16 20 -35 8 -19 18 -35 22 -35 5 0 7 -4 3 -9 -3
-5 2 -16 10 -24 8 -9 15 -22 15 -30 0 -8 7 -18 16 -21 8 -3 12 -11 8 -17 -4
-8 -3 -9 4 -5 11 6 17 -11 13 -36 0 -4 -2 -21 -3 -37 -1 -17 -6 -31 -11 -31
-4 0 -5 -4 -2 -10 3 -5 1 -10 -6 -10 -10 0 -10 -3 -2 -11 7 -7 8 -20 3 -34 -4
-12 -7 -36 -6 -53 1 -17 -3 -33 -8 -35 -7 -2 -5 -11 4 -22 8 -10 10 -16 5 -13
-7 4 -10 -4 -9 -20 1 -15 2 -27 3 -27 1 0 4 -20 7 -45 2 -24 10 -48 17 -52 6
-4 9 -8 4 -8 -10 0 40 -98 64 -123 10 -12 19 -25 19 -29 0 -5 5 -6 10 -3 6 3
10 1 10 -5 0 -10 24 -34 77 -78 16 -13 23 -33 27 -73 5 -57 42 -169 61 -181 5
-4 6 -8 1 -8 -5 0 9 -16 30 -35 21 -19 34 -35 30 -35 -14 0 48 -47 72 -54 12
-4 19 -12 16 -18 -4 -6 -2 -8 4 -4 6 3 13 2 17 -4 4 -6 11 -8 16 -5 5 4 9 1 9
-5 0 -6 5 -8 10 -5 6 3 10 2 10 -4 0 -9 25 -21 43 -21 4 0 26 -10 50 -23 23
-13 48 -22 55 -20 6 3 12 0 12 -7 0 -6 3 -9 8 -6 4 2 19 -22 32 -55 14 -32 29
-59 33 -59 5 0 5 -5 2 -10 -3 -6 1 -13 9 -16 9 -3 13 -10 10 -15 -3 -5 -2 -9
3 -9 9 0 39 -61 35 -72 -1 -5 5 -8 13 -8 8 0 15 -7 15 -16 0 -8 5 -12 10 -9 5
3 10 1 10 -5 0 -13 57 -70 71 -70 6 0 7 -4 4 -10 -3 -5 1 -10 9 -10 8 0 30 -9
49 -20 18 -11 46 -21 60 -22 15 -1 27 -5 27 -8 0 -5 14 -7 100 -15 19 -2 38
-4 41 -4 4 -1 25 -18 47 -38 79 -74 103 -93 117 -93 8 0 15 -4 15 -8 0 -9 68
-35 83 -32 5 1 15 -7 23 -17 11 -14 13 -15 14 -3 0 9 3 11 8 5 8 -12 142 -15
142 -3 0 4 7 4 17 1 9 -4 14 -2 10 3 -3 5 2 10 11 10 9 0 37 4 62 8 25 4 51 8
58 9 6 0 12 3 12 7 0 4 6 7 13 8 61 8 73 7 83 -6 14 -19 46 -8 38 13 -3 8 -11
12 -18 8 -7 -4 -8 -3 -1 4 6 6 35 14 65 18 75 10 280 12 280 3 0 -4 14 -6 30
-4 17 2 30 0 30 -5 0 -5 7 -5 17 -2 9 4 14 2 10 -3 -5 -8 19 -14 71 -17 6 0
12 -5 12 -11 0 -6 5 -4 10 4 7 11 10 11 10 2 0 -7 4 -11 9 -7 5 3 12 1 16 -5
4 -6 11 -8 16 -5 5 4 9 2 9 -4 0 -5 -4 -13 -10 -16 -5 -3 -10 -10 -10 -16 0
-16 29 -10 50 11 16 16 25 18 40 10 11 -6 20 -7 20 -3 0 4 8 -1 17 -12 l16
-20 -7 20 c-6 20 -6 20 9 1 11 -14 15 -16 15 -5 0 8 3 10 8 4 9 -13 161 -13
159 -1 -1 6 3 11 8 12 41 6 75 18 75 26 0 5 5 6 10 3 6 -3 10 -1 10 5 0 6 5 8
10 5 6 -3 13 1 16 9 3 9 12 16 19 16 8 0 40 26 72 59 68 68 115 121 109 121
-3 0 7 12 22 28 20 20 38 28 72 29 57 3 123 10 130 13 3 2 10 4 15 5 6 2 12 4
15 5 6 2 26 7 58 14 37 8 102 39 102 49 0 4 5 5 10 2 6 -3 10 -1 10 5 0 6 5 8
10 5 6 -3 10 -1 10 5 0 6 5 8 10 5 6 -4 9 -3 8 2 -2 5 11 23 29 40 17 17 29
34 26 37 -4 3 -1 6 5 6 7 0 12 7 12 15 0 8 4 15 9 15 10 0 21 27 20 44 0 5 5
12 12 17 7 4 14 13 15 21 5 35 11 45 39 64 17 12 47 29 68 39 20 9 37 22 37
27 0 5 5 6 10 3 6 -3 10 -1 10 5 0 6 12 15 26 20 14 6 23 14 19 19 -3 5 4 12
15 16 20 6 29 35 11 35 -5 0 -24 -15 -43 -32 -45 -45 -129 -98 -153 -98 -5 0
0 24 8 37 5 7 5 13 1 13 -3 0 -2 6 3 13 9 11 19 43 24 72 0 6 6 19 12 30 12
21 17 38 21 68 1 10 9 23 17 28 8 5 10 9 6 9 -4 0 -2 10 5 23 7 12 11 26 10
31 -2 5 7 15 18 23 15 10 18 19 12 25 -14 14 -24 6 -44 -34 -43 -85 -77 -175
-80 -215 -1 -7 -5 -13 -10 -13 -5 0 -7 -3 -5 -8 3 -4 -5 -34 -17 -66 -17 -49
-26 -61 -51 -69 -16 -6 -33 -15 -37 -21 -5 -7 -8 -6 -8 4 0 13 -2 13 -9 1 -5
-8 -15 -16 -23 -17 -32 -5 -44 -10 -55 -24 -11 -13 -12 -13 -13 0 0 9 -3 11
-8 5 -12 -16 -50 -35 -72 -35 -11 0 -20 -4 -20 -9 0 -5 -13 -13 -28 -19 -16
-5 -36 -17 -45 -27 -9 -9 -17 -14 -17 -11 0 13 -166 -141 -169 -156 -2 -14
-39 -47 -45 -41 -3 3 -12 1 -20 -6 -8 -6 -42 -14 -75 -16 -34 -3 -71 -9 -81
-15 -11 -6 -20 -8 -20 -5 0 3 -15 -1 -34 -9 -19 -8 -37 -12 -40 -8 -3 3 -6 1
-6 -5 0 -9 -41 -27 -47 -20 -1 1 -9 -7 -18 -18 -9 -11 -13 -13 -9 -5 4 9 -2 7
-17 -6 -13 -12 -46 -36 -74 -54 -27 -19 -53 -38 -57 -44 -4 -6 -8 -8 -8 -4 0
7 -33 -18 -70 -53 -17 -16 -66 -18 -108 -5 -25 8 -60 16 -87 21 -38 6 -50 10
-56 19 -11 14 -281 29 -304 16 -5 -3 -21 -5 -35 -6 -14 0 -35 -6 -48 -13 -12
-6 -27 -9 -32 -6 -5 3 -11 1 -14 -4 -4 -5 -12 -8 -19 -7 -27 5 -57 18 -57 25
0 8 -70 37 -82 34 -4 -2 -8 2 -8 8 0 6 -7 8 -16 5 -8 -3 -12 -2 -9 4 5 9 -9
14 -18 8 -2 -2 -11 3 -21 11 -9 8 -19 11 -23 8 -3 -4 -13 -2 -23 3 -9 5 -34
10 -54 12 -20 1 -36 5 -36 8 0 4 -7 7 -15 7 -8 0 -15 -5 -15 -11 0 -6 -4 -5
-9 2 -4 8 -12 14 -16 14 -4 0 -12 -6 -16 -14 -5 -7 -9 -8 -9 -3 0 6 -43 10
-112 10 -134 -1 -158 2 -158 22 0 13 -3 13 -15 3 -8 -7 -12 -16 -10 -21 3 -4
-5 -6 -17 -3 -13 3 -37 6 -54 8 -16 1 -34 5 -40 8 -5 3 -30 11 -56 18 -27 7
-48 17 -48 21 0 5 -7 9 -15 9 -7 0 -18 7 -23 16 -5 9 -12 15 -15 15 -20 -3
-27 0 -27 12 0 7 -13 26 -30 42 -16 16 -30 34 -30 41 0 6 -10 19 -23 28 -12 9
-16 14 -9 10 11 -5 11 -2 0 17 -7 13 -19 28 -26 34 -7 5 -14 21 -17 34 -2 14
-8 27 -13 30 -5 3 -11 16 -15 29 -4 19 -2 22 11 17 9 -4 29 -12 45 -17 15 -5
27 -15 27 -21 0 -6 3 -7 6 -4 4 3 16 0 28 -8 23 -17 56 -20 56 -5 0 6 -7 10
-15 10 -8 0 -15 5 -15 11 0 5 -5 7 -10 4 -5 -3 -10 -1 -10 6 0 7 -3 10 -6 6
-3 -3 -22 3 -42 13 -21 10 -53 25 -72 34 -31 14 -55 49 -71 104 -1 4 -8 12
-16 17 -8 6 -15 20 -16 32 0 12 -6 21 -12 20 -5 -1 -9 4 -8 11 2 6 -2 12 -7
12 -6 0 -10 5 -10 11 0 15 -102 119 -112 113 -4 -3 -8 2 -8 10 0 9 -7 16 -15
16 -8 0 -15 -2 -15 -5 0 -3 30 -37 68 -74 37 -38 76 -87 87 -109 11 -23 23
-42 28 -42 4 0 7 -7 7 -15 0 -8 5 -15 11 -15 5 0 7 -4 4 -10 -3 -5 -1 -10 5
-10 6 0 8 -5 5 -10 -3 -6 0 -10 7 -10 8 0 6 -5 -5 -11 -9 -6 -14 -16 -11 -22
4 -7 3 -8 -2 -4 -5 5 -9 14 -9 20 0 7 -6 13 -12 13 -7 1 -16 3 -20 4 -5 1 -11
2 -16 1 -4 0 -7 4 -7 10 0 5 -5 7 -10 4 -6 -3 -10 -1 -10 6 0 7 -3 10 -6 6
-18 -17 -224 128 -224 158 0 9 -27 35 -31 30 -2 -2 -5 11 -6 28 -2 18 -7 33
-13 35 -5 2 -10 16 -10 31 0 15 -3 31 -7 34 -3 4 -8 18 -9 32 -2 19 2 25 17
25 10 0 19 -5 19 -11 0 -5 5 -7 10 -4 6 3 10 2 10 -4 0 -5 8 -12 19 -16 27 -8
67 -45 63 -59 -2 -6 0 -8 4 -4 4 4 13 3 20 -3 9 -7 14 -6 20 2 4 8 0 17 -10
23 -10 6 -30 21 -44 33 -15 13 -33 23 -39 23 -7 0 -13 4 -13 8 0 5 -18 18 -40
31 -22 12 -38 26 -35 31 3 5 0 10 -6 12 -10 3 -17 82 -22 246 -1 17 -5 32 -10
32 -5 0 -8 10 -7 23 1 12 1 24 0 27 -1 3 -3 13 -5 23 -9 48 -39 127 -48 127
-6 0 -7 3 -4 6 7 7 -19 59 -40 82 -7 7 -13 17 -13 22 0 5 -7 15 -15 23 -16 17
-27 85 -14 93 4 2 6 11 3 19 -3 8 -2 20 2 27 10 16 17 129 12 206 0 9 -5 23
-11 30 -6 8 -6 12 3 12 9 0 9 4 2 13 -6 7 -12 25 -14 39 -2 15 -7 30 -10 34
-4 3 -4 12 -1 20 2 7 -2 23 -11 36 -9 12 -16 35 -16 50 0 16 -4 28 -8 28 -10
0 -32 81 -32 115 0 14 7 28 15 31 8 4 12 10 9 15 -3 5 0 9 5 9 6 0 11 4 11 10
0 5 12 26 26 47 14 21 30 48 35 61 5 12 13 22 19 22 6 0 9 4 5 9 -3 6 2 14 11
19 9 5 16 13 16 18 0 5 5 20 11 34 6 14 11 27 11 30 1 3 6 12 11 20 9 15 12
23 19 65 2 11 8 31 14 45 5 14 8 28 5 32 -2 4 1 16 7 27 7 14 7 22 0 26 -7 4
-7 12 -2 18 4 7 9 30 11 52 2 30 10 46 32 65 16 14 29 31 29 38 0 7 4 11 9 8
9 -6 71 57 71 72 0 4 9 14 19 22 11 7 18 17 15 22 -3 4 -1 8 4 8 6 0 15 14 21
30 5 17 15 30 20 30 6 0 10 3 10 8 -1 4 0 9 1 12 1 3 3 12 5 20 2 8 11 33 21
55 9 22 18 50 20 63 2 13 7 29 12 35 4 7 8 21 8 32 -1 11 5 26 12 33 7 8 10
18 7 23 -4 5 -1 9 5 9 6 0 9 4 5 9 -6 10 38 63 52 62 4 -1 22 4 38 10 17 7 32
13 35 14 6 2 52 21 90 38 14 5 28 10 33 9 4 -1 7 2 7 7 0 5 12 13 28 19 15 5
32 11 37 13 6 2 18 10 28 19 10 8 20 14 23 12 3 -2 16 8 30 23 13 14 24 23 24
20 0 -4 21 17 48 46 94 104 124 130 137 119 6 -5 15 -7 19 -3 7 8 40 13 89 14
15 0 27 5 27 11 0 6 9 8 20 5 10 -3 20 -1 22 4 2 5 14 11 28 14 37 7 120 47
120 58 0 5 7 7 15 3 8 -3 15 -1 15 4 0 5 16 17 35 26 19 9 32 20 29 25 -3 5 1
9 10 9 8 0 37 18 64 39 27 22 53 37 56 34 3 -4 6 -1 6 6 0 14 41 31 55 23 6
-4 15 -7 20 -8 6 -1 39 -10 75 -19 36 -9 75 -17 88 -17 12 0 22 -4 22 -8 0 -3
6 -7 13 -7 6 0 35 -4 62 -7 46 -7 103 -10 115 -7 3 1 37 3 77 5 43 1 79 8 89
17 14 11 16 11 10 1 -7 -11 -4 -12 11 -4 40 22 87 19 143 -7 30 -14 58 -30 62
-36 4 -5 8 -7 8 -3 0 4 17 -1 38 -12 41 -21 80 -31 129 -34 18 0 33 -4 33 -7
0 -3 11 -5 24 -4 14 2 40 0 59 -5 19 -4 41 -4 47 0 7 4 25 4 41 0 19 -6 30 -4
33 3 4 8 8 9 11 1 6 -11 56 -11 74 1 6 3 11 1 11 -5 0 -6 5 -8 12 -4 6 4 17
-1 25 -11 7 -11 13 -16 13 -12 0 5 6 2 14 -5 8 -7 12 -16 9 -20 -2 -5 1 -8 7
-8 6 0 8 -5 4 -12 -5 -9 -2 -9 9 1 21 17 21 16 -5 41 -16 14 -18 20 -7 21 8 1
21 2 29 3 8 1 20 -3 27 -7 7 -5 17 -6 22 -3 5 4 13 2 16 -4 5 -8 11 -7 21 1
11 9 15 8 19 -3 3 -8 11 -15 18 -15 17 -1 41 -7 47 -13 14 -14 70 -50 78 -50
6 0 18 -12 28 -27 10 -16 22 -33 28 -40 30 -34 36 -43 29 -43 -4 0 -3 -4 2 -8
13 -9 53 -78 66 -114 6 -16 15 -28 20 -28 5 0 9 -7 9 -16 0 -11 -6 -14 -22 -9
-13 4 -27 8 -33 9 -5 0 -12 3 -15 6 -3 3 -32 19 -65 35 -33 16 -67 36 -75 43
-8 7 -32 29 -53 48 -21 19 -43 34 -48 34 -5 0 -9 7 -9 15 0 8 -4 15 -10 15 -5
0 -10 7 -10 16 0 8 -3 13 -7 11 -10 -6 -34 19 -26 27 4 3 -1 6 -11 6 -9 0 -14
5 -11 10 3 6 1 10 -5 10 -6 0 -9 4 -6 9 6 9 -23 25 -31 17 -6 -6 12 -33 65
-91 23 -26 42 -51 42 -56 0 -5 7 -9 15 -9 8 0 15 -7 15 -15 0 -8 4 -15 9 -15
4 0 19 -10 33 -22 32 -29 55 -44 94 -62 17 -8 35 -19 38 -25 4 -5 14 -7 23 -4
12 5 14 3 8 -7 -5 -8 -4 -11 3 -6 6 3 14 1 17 -5 4 -5 13 -8 21 -5 8 3 14 1
14 -5 0 -6 5 -7 10 -4 6 3 10 2 10 -3 0 -5 8 -12 18 -14 19 -5 72 -89 72 -115
0 -8 4 -12 9 -9 5 3 14 -8 20 -24 5 -17 15 -30 21 -30 6 0 9 -4 6 -8 -3 -5 20
-36 50 -71 29 -34 54 -59 54 -54 0 4 5 0 11 -9 5 -10 16 -18 22 -18 7 0 19 -9
27 -19 7 -11 17 -18 21 -16 4 3 9 -2 13 -10 3 -8 12 -15 21 -15 8 0 15 -4 15
-10 0 -5 7 -10 16 -10 8 0 12 -4 9 -10 -3 -5 0 -10 7 -10 7 0 30 -16 50 -34
30 -27 36 -39 32 -61 -3 -15 -1 -32 3 -39 5 -6 9 -39 8 -73 0 -35 2 -63 5 -63
3 0 6 -17 6 -38 2 -72 7 -117 14 -127 4 -5 10 -27 14 -47 4 -21 12 -38 18 -38
5 0 8 -7 4 -15 -3 -8 -1 -15 5 -15 6 0 8 -4 5 -9 -3 -4 3 -19 14 -32 12 -12
23 -33 26 -45 3 -12 12 -25 20 -28 8 -3 14 -12 14 -21 0 -8 4 -15 9 -15 5 0
11 -9 14 -20 3 -11 2 -20 -2 -20 -4 0 -8 -16 -9 -35 -2 -20 -7 -47 -12 -60 -7
-18 -6 -25 3 -25 7 0 8 -3 2 -8 -14 -10 -14 -172 0 -172 5 0 3 -5 -5 -10 -8
-5 -10 -10 -5 -10 6 0 11 -8 12 -17 4 -43 43 -176 73 -248 21 -50 20 -76 -4
-119 -14 -24 -22 -47 -18 -51 3 -3 -2 -3 -12 1 -13 5 -17 4 -12 -4 4 -7 2 -17
-4 -24 -24 -27 -100 -150 -100 -162 0 -6 -7 -22 -16 -34 -8 -12 -12 -22 -8
-22 3 0 1 -6 -5 -13 -6 -8 -8 -17 -4 -20 3 -4 1 -7 -6 -7 -7 0 -9 -4 -6 -10 3
-5 3 -16 -2 -22 -7 -12 -12 -51 -16 -123 -1 -16 -6 -33 -12 -37 -6 -5 -5 -8 2
-8 9 0 10 -7 3 -24 -5 -13 -7 -27 -4 -30 2 -3 1 -4 -2 -2 -3 2 -27 -19 -52
-46 -26 -28 -59 -63 -74 -79 -14 -15 -23 -30 -20 -33 3 -3 -1 -6 -8 -6 -10 0
-11 -3 -4 -10 13 -13 46 -2 38 11 -3 6 17 32 44 58 28 27 48 52 45 55 -4 3 5
6 18 6 19 0 21 -2 9 -10 -13 -9 -13 -10 0 -10 12 0 13 -2 1 -9 -11 -7 -11 -9
0 -14 11 -4 11 -6 1 -6 -7 -1 -10 -5 -7 -11 3 -5 1 -19 -6 -31 -8 -17 -8 -20
1 -14 8 5 10 2 6 -11 -6 -21 -16 -75 -20 -111 -2 -13 -8 -29 -15 -36 -6 -8 -8
-17 -4 -20 3 -4 1 -13 -5 -20 -7 -8 -9 -17 -5 -20 3 -4 0 -7 -7 -7 -7 0 -11
-3 -7 -6 3 -4 -1 -13 -9 -21 -8 -8 -12 -19 -9 -24 9 -14 25 -10 25 6 0 9 6 18
14 21 8 3 12 12 9 20 -3 8 0 14 7 14 7 0 10 7 6 15 -3 8 -1 15 4 15 5 0 7 7 4
15 -4 8 -1 15 5 15 6 0 11 9 11 20 0 11 5 20 11 20 8 0 9 4 0 13 -6 8 -8 16
-5 19 5 6 9 41 18 160 5 65 28 114 48 102 5 -3 7 -2 6 3 -1 4 27 38 62 75 81
84 87 91 102 123 6 14 15 25 20 25 4 0 7 3 7 8 -1 4 4 23 12 42 7 19 12 38 11
43 -1 4 1 7 6 7 16 0 15 171 -1 197 -5 7 -5 13 -1 13 3 0 1 7 -6 15 -7 8 -10
22 -6 30 3 8 0 15 -7 15 -8 0 -8 3 -2 8 27 19 105 202 87 202 -4 0 0 5 8 10
10 6 11 10 3 10 -9 0 -10 7 -3 26 7 18 7 23 -2 18 -7 -5 -8 -3 -2 7 10 17 14
60 4 54 -4 -2 -7 12 -8 32 -1 20 -7 40 -13 44 -7 4 -9 14 -6 22 3 9 -1 21 -9
27 -8 7 -14 21 -14 31 0 11 -4 19 -10 19 -5 0 -10 7 -10 15 0 16 -39 77 -52
83 -5 2 -8 10 -8 18 0 8 -8 24 -18 35 -10 10 -18 29 -16 42 1 12 3 22 4 22 1
0 3 14 6 30 9 71 11 81 16 90 8 15 8 225 0 225 -4 0 -9 12 -10 27 -1 15 -7 30
-13 34 -6 3 -10 8 -8 10 5 9 -13 49 -23 49 -6 0 -9 3 -5 6 7 7 -21 41 -101
120 -35 35 -61 68 -57 74 3 5 3 15 -1 22 -4 7 -9 25 -11 40 -4 41 -7 52 -15
58 -4 3 -9 15 -11 25 -2 11 -12 36 -22 55 -11 19 -18 38 -17 42 1 4 -7 10 -18
13 -11 4 -20 11 -20 16 0 12 -37 49 -50 49 -5 0 -10 3 -10 8 0 4 -14 13 -30
20 -17 8 -28 18 -24 23 3 5 0 10 -5 10 -6 1 -14 3 -18 4 -5 2 -18 6 -30 10
-13 4 -23 12 -23 17 0 5 -4 7 -8 4 -4 -2 -26 4 -49 14 -23 10 -44 16 -47 13
-3 -3 -8 1 -12 10 -3 9 -12 13 -21 10 -11 -4 -14 -2 -9 5 4 7 1 12 -8 12 -9 0
-16 8 -16 19 0 10 -7 24 -15 31 -9 7 -13 15 -11 18 11 10 -81 161 -126 206
-15 17 -28 33 -28 37 0 3 -13 12 -30 19 -16 7 -30 16 -30 21 0 5 -7 9 -15 9
-8 0 -15 5 -15 10 0 6 -6 10 -12 9 -7 -1 -26 3 -41 9 -16 7 -35 12 -43 12 -8
0 -14 5 -14 12 0 9 -3 9 -11 1 -8 -8 -22 -8 -50 2 -22 8 -39 10 -39 5 0 -4 -8
-6 -18 -3 -25 6 -73 48 -65 57 3 3 2 6 -3 6 -6 0 -21 10 -34 23 -14 12 -28 23
-32 23 -5 1 -12 2 -18 3 -5 0 -10 8 -10 17 0 8 -4 12 -10 9 -5 -3 -10 -2 -10
3 0 9 -47 27 -62 24 -5 -1 -8 2 -8 6 0 8 -14 12 -52 13 -10 0 -18 4 -18 7 0 4
-27 5 -60 2 -33 -3 -60 -2 -60 3 0 4 -6 5 -12 0 -15 -9 -31 -12 -73 -16 -16
-2 -40 -8 -51 -15 -12 -6 -24 -9 -27 -5 -3 3 -14 2 -24 -2 -37 -16 -77 -13
-104 6 -15 10 -32 19 -37 19 -6 0 -12 5 -14 11 -2 7 -19 13 -37 15 -29 4 -32
2 -21 -11 7 -8 18 -15 25 -15 7 0 18 -7 25 -15 6 -8 15 -14 18 -13 21 2 32 -4
32 -18 0 -10 -5 -14 -16 -10 -8 3 -13 2 -9 -3 3 -5 -24 -13 -60 -16 -36 -4
-68 -11 -71 -16 -3 -5 -11 -6 -17 -2 -18 11 -66 10 -59 -2 3 -5 -2 -4 -11 4
-14 11 -17 11 -17 0 0 -9 -3 -10 -8 -3 -4 5 -23 11 -42 12 -20 1 -46 5 -58 7
-12 3 -31 7 -42 9 -11 3 -25 8 -32 12 -7 5 -8 3 -3 -5 4 -8 -3 -6 -18 3 -14
10 -41 18 -61 19 -20 1 -36 5 -36 9 0 4 -12 8 -27 10 l-28 3 35 22 35 23 -27
0 c-16 0 -37 -9 -48 -20z m990 -20 c18 10 21 9 15 -1 -6 -9 -3 -11 8 -6 10 4
17 1 18 -6 0 -9 2 -9 5 0 4 9 12 9 32 2 15 -6 38 -13 52 -16 13 -2 27 -7 30
-11 7 -9 68 -52 74 -52 12 0 77 -68 70 -72 -8 -5 -269 -3 -269 2 0 1 -22 4
-50 6 -27 3 -52 9 -55 13 -3 5 -18 10 -35 13 -46 8 -58 12 -73 26 -7 6 -22 12
-33 12 -11 0 -17 5 -14 10 4 6 -5 10 -19 10 -16 0 -26 6 -26 15 0 14 12 19 33
16 4 -1 23 5 43 14 19 8 32 10 29 5 -7 -11 8 -14 19 -3 7 8 25 11 74 15 17 1
32 7 32 13 0 5 4 4 9 -4 7 -10 13 -11 31 -1z m-1081 -11 l44 -3 -28 -21 c-16
-11 -39 -30 -52 -42 -13 -12 -23 -20 -23 -17 0 2 -18 -8 -40 -22 -22 -15 -40
-31 -40 -36 0 -5 -4 -7 -9 -4 -5 3 -14 -1 -21 -9 -7 -8 -16 -13 -20 -10 -4 3
-13 -2 -20 -10 -7 -8 -19 -15 -26 -15 -8 0 -14 -4 -14 -9 0 -5 -17 -12 -37
-16 -21 -4 -42 -10 -48 -13 -12 -8 -32 -13 -65 -16 -14 -1 -33 -6 -43 -10 -10
-5 -21 -6 -24 -3 -3 4 -14 2 -24 -3 -12 -7 -20 -7 -24 0 -3 5 -1 10 4 10 6 0
10 6 9 13 -2 6 3 11 11 9 8 -2 11 3 8 13 -4 9 -1 15 6 15 7 0 23 14 36 30 12
17 27 28 33 24 6 -4 8 -3 5 3 -4 5 10 23 30 39 20 16 41 34 47 39 18 17 96 57
96 49 0 -3 6 -2 13 3 6 5 28 10 47 12 19 2 36 4 37 5 3 2 66 0 132 -5z m-619
-339 c-17 -17 -27 -30 -23 -30 4 0 0 -5 -9 -11 -10 -5 -18 -16 -18 -24 0 -9
-6 -12 -17 -8 -10 4 -14 2 -9 -5 3 -6 -3 -13 -14 -17 -11 -3 -25 -15 -30 -26
-6 -10 -20 -19 -30 -19 -11 0 -20 -4 -20 -8 0 -4 -28 -21 -62 -37 -35 -16 -65
-32 -68 -35 -5 -5 -16 -8 -50 -15 -9 -2 -31 -12 -50 -22 -38 -20 -80 -27 -80
-13 0 5 5 12 10 15 6 4 8 11 5 16 -4 5 -1 9 4 9 6 0 11 5 11 11 0 12 48 83 76
114 32 34 113 87 124 80 6 -3 12 0 15 7 3 8 15 15 28 16 39 4 56 8 63 15 4 4
22 7 40 7 18 0 36 5 39 10 5 8 11 7 21 -1 10 -8 14 -8 14 -1 0 7 7 9 17 5 11
-5 14 -3 8 6 -6 10 -3 11 14 2 21 -12 21 -12 -9 -41z m2670 -312 c0 -5 6 -8
13 -7 6 1 26 -4 42 -11 17 -7 35 -14 40 -15 6 0 9 -6 8 -13 -2 -7 6 -12 16
-12 11 0 27 -7 35 -16 9 -8 16 -13 16 -9 0 3 12 -7 26 -22 14 -15 28 -27 30
-25 7 4 54 -54 54 -67 0 -6 5 -11 10 -11 6 0 10 -9 10 -20 0 -11 5 -20 11 -20
6 0 9 -9 6 -20 -3 -10 -1 -20 4 -22 5 -2 12 -23 15 -48 3 -25 7 -49 8 -54 0
-5 -5 -11 -13 -14 -8 -3 -11 0 -7 7 4 6 2 11 -3 11 -6 0 -20 8 -30 18 -35 31
-50 42 -58 42 -5 0 -29 18 -53 40 -25 22 -51 40 -59 40 -8 0 -12 2 -9 6 9 8
-46 61 -57 55 -5 -2 -7 -1 -3 4 4 4 -6 25 -22 45 -17 21 -30 43 -30 49 0 6 -4
11 -10 11 -5 0 -10 6 -10 14 0 8 -7 22 -16 30 -8 9 -12 21 -8 27 4 8 3 9 -4 5
-7 -4 -12 -3 -12 3 0 5 6 11 13 14 17 5 47 -3 47 -15z m-3204 -43 c-1 -8 -5
-17 -8 -21 -4 -3 -4 -12 -1 -20 3 -8 0 -14 -6 -14 -6 0 -10 -3 -10 -7 1 -5 0
-10 -1 -13 -1 -3 -4 -18 -6 -35 -3 -16 -9 -35 -15 -41 -5 -6 -10 -23 -11 -38
-1 -14 -6 -26 -11 -26 -4 0 -5 -4 -2 -10 3 -5 1 -10 -5 -10 -6 0 -8 -4 -5 -10
3 -5 1 -10 -4 -10 -6 0 -10 -3 -9 -7 4 -13 -42 -100 -67 -127 -13 -14 -22 -26
-19 -26 3 0 -18 -22 -47 -50 -29 -27 -55 -50 -59 -50 -4 0 -6 18 -6 40 1 22 4
40 7 40 3 0 4 14 3 30 -1 17 1 30 5 30 4 0 7 15 6 33 -1 17 2 39 6 48 5 9 10
29 13 44 3 16 9 31 13 34 8 6 15 27 16 49 0 6 2 10 5 7 6 -6 24 15 41 48 8 15
18 27 22 27 5 0 20 11 34 25 14 14 25 23 25 20 0 -4 12 3 26 14 15 12 33 21
40 21 8 0 14 5 14 10 0 6 4 10 9 10 5 0 8 -7 7 -15z m3610 -448 c11 -3 55 -47
46 -48 -4 0 1 -4 11 -8 10 -4 18 -10 17 -14 0 -4 5 -14 12 -21 32 -33 48 -57
48 -70 0 -8 9 -33 19 -57 15 -33 17 -45 8 -51 -8 -5 -8 -8 -1 -8 15 0 15 -122
0 -132 -8 -5 -7 -8 1 -8 8 0 9 -9 4 -27 -4 -16 -6 -34 -3 -42 2 -8 0 -11 -6
-8 -5 4 -10 -5 -11 -21 -1 -59 -3 -63 -20 -49 -23 17 -30 30 -25 39 3 4 -2 8
-10 8 -9 0 -15 3 -14 8 4 10 -24 76 -35 83 -4 3 -10 15 -12 25 -2 10 -4 19 -5
19 -1 0 -3 7 -5 15 -2 8 -7 26 -10 40 -4 14 -8 41 -10 60 -2 19 -4 37 -5 40
-1 3 -2 24 -1 48 1 32 -2 41 -12 36 -8 -5 -7 -2 2 9 10 13 10 17 1 17 -10 0
-10 3 -1 14 7 9 8 17 2 20 -5 3 -9 29 -8 56 0 28 3 46 7 40 4 -7 11 -12 16
-13z m-3941 -204 c0 -32 -7 -69 -14 -82 -7 -13 -9 -21 -4 -18 10 6 -5 -58 -25
-106 -7 -16 -12 -33 -12 -38 0 -5 -5 -9 -12 -9 -6 0 -9 -3 -6 -6 4 -3 -16 -41
-43 -85 -27 -43 -49 -83 -49 -89 0 -6 -7 -13 -15 -16 -8 -3 -17 -14 -20 -25
-10 -30 -31 -22 -34 14 -9 102 -4 214 12 250 9 20 15 39 14 40 -1 1 8 13 21
27 12 13 22 30 22 37 0 7 7 13 15 13 8 0 15 4 15 10 0 10 120 137 131 139 3 1
5 -25 4 -56z m4115 -484 c7 -17 18 -36 24 -42 12 -13 65 -121 86 -174 18 -48
16 -243 -2 -243 -5 0 -8 -9 -8 -19 0 -11 -4 -23 -10 -26 -5 -3 -10 -15 -10
-26 0 -11 -4 -17 -10 -14 -5 3 -10 -1 -10 -9 0 -33 -17 -14 -30 34 -7 28 -18
50 -22 50 -5 0 -7 4 -4 9 3 5 -1 27 -9 50 -8 23 -12 41 -8 41 3 0 0 7 -7 16
-8 8 -15 25 -16 37 -1 12 -5 36 -9 52 -10 50 -12 84 -3 79 4 -3 4 6 -2 20 -6
17 -6 27 1 32 6 4 6 11 -2 20 -6 8 -7 14 -2 14 5 0 9 12 9 28 1 40 15 102 24
102 4 0 13 -14 20 -31z m-4336 -131 c-3 -4 -1 -8 4 -8 5 0 15 -25 22 -55 7
-31 17 -58 21 -61 4 -2 11 -25 15 -49 3 -25 10 -45 15 -45 5 0 6 -6 3 -14 -3
-8 -1 -23 4 -33 7 -12 7 -25 1 -36 -6 -10 -6 -17 -1 -17 5 0 8 -33 7 -72 -2
-40 -4 -73 -5 -73 -1 0 -3 -9 -5 -20 -8 -61 -25 -111 -25 -77 0 7 -8 21 -18
32 -9 11 -16 24 -16 28 1 4 -7 19 -17 34 -10 14 -19 31 -19 37 0 6 -5 11 -10
11 -6 0 -9 3 -8 8 2 4 -6 27 -16 52 -11 25 -21 59 -22 75 -2 17 -5 46 -8 65
-2 19 -2 39 1 44 4 5 7 27 7 48 1 22 8 44 16 49 11 8 12 12 3 16 -10 3 -9 8 2
20 8 8 13 19 10 24 -4 5 -2 9 3 9 5 0 12 10 16 23 5 18 8 19 15 7 5 -8 7 -18
5 -22z m4383 -549 c-3 -10 -1 -22 5 -25 12 -8 8 -184 -4 -201 -6 -7 -7 -17 -3
-23 3 -5 2 -10 -3 -10 -6 0 -13 -11 -16 -25 -4 -14 -11 -25 -16 -25 -6 0 -10
-6 -10 -14 0 -7 -13 -26 -28 -43 -16 -16 -26 -36 -24 -43 3 -8 1 -12 -3 -8 -4
4 -24 -9 -44 -30 -20 -20 -48 -47 -61 -59 l-25 -22 2 42 c1 23 5 62 9 87 4 25
7 53 8 63 0 9 4 17 8 17 4 0 8 8 8 18 0 23 79 175 96 185 8 5 12 12 9 18 -4 5
1 12 9 15 9 3 13 10 10 15 -3 5 -1 9 5 9 6 0 13 11 17 25 3 14 10 25 14 25 5
0 12 9 15 20 8 25 29 15 22 -11z m-4276 -126 c7 -16 25 -46 38 -68 13 -22 24
-40 23 -40 -1 0 1 -10 4 -22 4 -13 9 -21 13 -19 4 3 8 -10 9 -27 2 -17 6 -34
10 -37 4 -3 8 -16 9 -30 5 -85 8 -100 17 -100 6 0 5 -5 -1 -11 -8 -8 -8 -20
-3 -35 6 -15 5 -26 -1 -30 -6 -4 -6 -11 2 -20 6 -7 9 -20 6 -29 -4 -8 -2 -17
4 -21 7 -4 6 -10 0 -18 -6 -7 -8 -16 -5 -19 4 -3 4 -13 0 -22 -5 -13 -8 -14
-20 -3 -8 7 -12 16 -9 21 2 4 -4 7 -13 7 -10 0 -15 3 -11 6 3 3 -10 20 -29 37
-19 18 -34 38 -34 44 0 7 -4 13 -10 13 -5 0 -10 8 -10 17 0 9 -8 25 -17 36
-13 15 -14 18 -3 12 13 -7 13 -6 2 7 -20 24 -24 54 -22 163 2 123 3 135 10
135 3 0 5 14 4 30 -1 17 2 30 8 30 5 0 6 5 3 10 -3 6 -2 10 3 10 5 0 15 -12
23 -27z m3663 -1080 c-11 -43 -61 -133 -82 -146 -7 -5 -10 -13 -6 -18 3 -5 2
-8 -3 -7 -5 2 -19 -7 -31 -18 -27 -26 -106 -67 -127 -67 -8 0 -15 -4 -15 -9 0
-5 -4 -6 -10 -3 -5 3 -16 3 -22 -2 -7 -4 -17 -8 -23 -9 -109 -18 -185 -26
-185 -19 0 3 6 12 13 19 32 34 57 67 57 77 0 5 4 8 8 5 5 -3 19 5 30 17 37 38
56 52 105 76 26 13 47 28 47 33 0 4 3 7 8 6 9 -3 47 10 100 33 23 11 56 22 72
26 17 3 30 10 30 15 0 5 4 7 9 3 5 -3 12 -1 16 5 11 18 15 10 9 -17z m-595
-374 c-11 -16 -25 -26 -31 -23 -7 4 -8 2 -4 -4 3 -6 -3 -16 -15 -22 -11 -7
-18 -14 -15 -17 6 -7 -46 -59 -56 -55 -4 1 -8 -5 -8 -14 0 -8 -4 -12 -10 -9
-5 3 -10 2 -10 -4 0 -11 -71 -57 -82 -53 -5 1 -8 -3 -8 -8 0 -6 -8 -10 -18
-10 -10 0 -23 -5 -30 -12 -7 -7 -12 -9 -12 -5 0 4 -10 3 -21 -4 -17 -9 -20 -8
-14 2 6 8 4 10 -5 4 -17 -10 -100 -13 -100 -3 0 4 -11 3 -25 -2 -14 -5 -27 -6
-30 0 -3 5 -14 7 -25 5 -13 -3 -17 1 -13 11 3 7 9 11 14 8 5 -3 9 2 9 10 0 9
7 16 15 16 7 0 19 8 24 18 6 9 11 13 11 9 0 -5 15 3 33 17 71 57 136 98 146
91 5 -2 11 2 15 10 3 8 12 15 21 15 8 0 15 4 15 8 0 4 10 8 22 9 11 1 24 6 27
10 3 4 13 9 21 9 8 1 31 5 50 9 19 4 42 8 50 10 8 1 18 -3 22 -9 6 -8 8 -7 8
1 0 7 7 10 15 7 8 -4 15 -1 15 6 0 6 5 8 10 5 6 -4 2 -18 -11 -36z m-1835 -76
c4 8 8 9 11 1 6 -11 57 -10 76 1 5 4 9 1 9 -5 0 -8 6 -8 20 0 15 8 20 8 20 -2
0 -9 3 -9 10 2 5 8 10 10 10 4 0 -14 30 -14 30 0 0 7 3 8 8 1 4 -6 21 -11 37
-12 47 -1 94 -9 102 -16 3 -4 15 -7 25 -7 10 0 38 -9 60 -20 23 -11 47 -20 52
-20 15 -1 71 -48 65 -54 -3 -3 -21 -6 -42 -8 -20 -1 -37 -5 -37 -8 0 -3 -16
-5 -35 -5 -19 1 -32 -3 -28 -8 3 -5 -8 -7 -23 -6 -16 2 -34 0 -41 -4 -6 -4
-14 -3 -18 3 -4 6 -12 7 -24 1 -19 -10 -46 -9 -57 2 -4 4 -13 2 -20 -4 -8 -6
-14 -7 -18 0 -4 6 -13 8 -21 4 -8 -3 -15 1 -15 8 0 7 -3 9 -6 6 -4 -3 -16 -1
-28 5 -11 7 -23 13 -26 14 -21 5 -48 22 -67 42 -13 14 -23 21 -23 17 0 -4 -8
1 -17 12 -10 11 -27 25 -38 31 -18 10 -18 11 -2 12 11 0 15 5 11 11 -5 8 -1 8
14 0 15 -8 22 -8 26 2z"/>
<path d="M1426 3381 c-4 -5 -19 -9 -35 -9 -36 1 -50 -8 -46 -30 2 -9 4 -17 5
-17 1 0 3 -13 3 -30 1 -16 6 -36 11 -44 7 -11 6 -12 -5 -6 -11 7 -12 6 -3 -6
5 -8 11 -30 13 -49 2 -19 5 -44 6 -55 1 -11 3 -35 4 -53 1 -24 5 -31 14 -26 9
6 9 5 0 -8 -7 -8 -10 -17 -7 -20 3 -4 7 -21 9 -40 2 -18 4 -33 5 -33 2 0 12
-74 13 -102 1 -13 5 -23 9 -23 5 0 4 -9 -2 -19 -6 -12 -6 -21 0 -23 5 -2 10
-25 11 -53 1 -27 5 -54 8 -60 3 -5 6 -26 7 -45 4 -68 9 -110 14 -110 3 0 6
-15 6 -33 2 -36 12 -132 14 -132 1 0 3 -16 6 -35 9 -86 11 -96 16 -105 3 -6 9
-44 12 -85 3 -41 8 -86 12 -100 3 -14 7 -43 9 -65 2 -22 4 -40 5 -40 3 0 8
-49 12 -102 1 -29 5 -53 9 -53 3 0 6 -6 6 -12 0 -7 4 -44 8 -83 4 -38 8 -86
10 -105 2 -19 4 -35 5 -35 3 0 8 -40 16 -115 3 -36 11 -71 16 -77 7 -9 6 -13
-3 -13 -11 -1 -11 -2 1 -9 8 -5 81 -8 161 -8 l147 0 -3 23 c-1 13 2 21 7 18 5
-4 9 4 8 17 -1 13 -1 26 0 29 2 6 6 39 11 95 1 22 8 46 13 54 9 12 8 13 -3 6
-11 -6 -12 -5 -5 6 10 17 13 29 17 89 2 25 5 50 8 55 2 6 4 27 4 47 0 21 3 38
6 38 4 0 7 10 7 23 0 12 3 51 8 87 4 36 8 77 8 92 1 14 4 24 7 22 3 -2 7 20 8
49 3 67 6 90 12 102 2 6 4 29 4 52 0 24 2 43 5 43 3 0 6 12 7 28 2 15 5 43 7
62 8 67 17 155 19 188 1 17 6 32 12 32 5 0 3 5 -5 10 -8 5 -10 10 -4 10 5 0
11 24 13 53 1 28 3 64 3 79 1 15 5 25 8 23 4 -2 6 -20 5 -39 -1 -20 1 -36 4
-36 6 0 11 -59 14 -152 1 -27 4 -48 7 -48 4 0 7 -24 9 -52 4 -91 5 -98 11 -98
3 0 6 -8 6 -17 2 -61 16 -188 21 -196 3 -5 7 -26 8 -46 1 -20 6 -70 10 -111 4
-41 8 -81 8 -87 0 -7 3 -13 7 -13 6 0 7 -12 15 -125 2 -27 6 -61 9 -74 3 -12
8 -42 11 -65 7 -59 10 -70 18 -83 5 -7 4 -13 -2 -13 -7 0 -7 -8 -2 -22 5 -13
8 -40 6 -61 -1 -21 2 -40 7 -43 4 -3 8 -15 8 -28 0 -23 1 -23 138 -24 176 -1
177 -1 180 40 1 18 5 49 8 68 3 19 7 47 9 61 8 48 17 133 18 171 1 21 5 38 8
38 3 0 6 12 7 28 0 15 4 52 7 82 3 30 7 67 8 82 1 15 6 30 10 34 4 4 7 27 7
51 0 24 3 43 8 43 4 0 7 19 8 43 1 64 11 133 19 147 6 9 4 11 -4 5 -10 -6 -11
-3 -2 14 7 12 9 25 6 30 -3 5 1 12 7 14 10 4 10 6 0 6 -8 1 -10 6 -5 14 4 6 8
21 9 32 2 27 15 135 20 160 8 36 16 120 15 143 0 12 3 22 7 22 4 0 8 15 8 33
0 17 3 48 7 67 8 49 17 116 21 176 2 29 6 56 9 60 4 8 7 34 22 172 2 18 6 41
9 50 3 9 8 53 11 97 l7 81 -29 -2 c-15 -1 -36 3 -47 8 -12 7 -16 7 -12 0 3 -6
-23 -8 -72 -7 -105 4 -111 0 -113 -87 -1 -25 -5 -36 -13 -31 -7 4 -7 2 1 -7
13 -14 6 -43 -9 -34 -6 4 -5 -2 1 -14 8 -15 8 -22 -2 -25 -9 -4 -9 -6 1 -6 7
-1 11 -5 8 -10 -7 -10 -16 -65 -21 -125 -12 -119 -23 -221 -25 -221 -1 0 -3
-20 -5 -45 -5 -52 -12 -115 -20 -185 -4 -27 -8 -72 -10 -100 -2 -27 -4 -52 -5
-55 -1 -3 -1 -13 0 -24 1 -10 -2 -16 -7 -13 -4 3 -8 -24 -8 -59 1 -35 -2 -64
-5 -64 -3 0 -6 -15 -7 -32 -1 -18 -4 -67 -8 -108 -3 -41 -7 -94 -8 -117 -1
-24 -4 -43 -8 -43 -3 0 -5 -11 -4 -25 2 -14 0 -37 -5 -53 l-8 -27 -2 30 c-1
17 -3 44 -4 60 -1 17 -6 36 -10 44 -7 10 -5 12 4 6 9 -6 11 -4 5 5 -9 14 -13
40 -21 140 -7 96 -12 145 -14 145 -1 0 -3 16 -5 35 -1 19 -6 58 -10 85 -4 28
-8 66 -10 85 -2 19 -7 53 -10 75 -4 22 -7 52 -8 68 0 15 -3 27 -6 27 -3 0 -6
23 -6 50 0 28 -2 50 -5 50 -3 0 -6 19 -6 43 -1 23 -5 58 -8 77 -4 19 -9 55
-11 80 -3 25 -7 68 -11 95 -3 28 -7 59 -8 70 -1 11 -4 25 -7 30 -3 6 -5 26 -5
45 1 19 -2 40 -6 47 -5 6 -5 14 2 18 7 4 7 12 0 25 -6 10 -11 30 -12 44 -2 20
-8 26 -25 26 -13 0 -23 6 -23 13 0 8 -3 9 -8 1 -4 -6 -40 -11 -87 -11 -47 0
-83 5 -87 11 -5 8 -8 7 -8 -1 0 -7 -11 -13 -25 -13 -20 0 -25 -5 -25 -25 0
-36 -1 -39 -13 -54 -10 -12 -9 -13 3 -6 12 7 13 6 4 -6 -10 -13 -15 -47 -18
-126 0 -18 -3 -33 -6 -33 -3 0 -6 -17 -6 -38 -2 -33 -10 -87 -14 -87 -1 0 -4
-22 -6 -50 -7 -81 -13 -138 -18 -175 -3 -19 -8 -54 -10 -77 -2 -22 -7 -46 -10
-52 -4 -6 -2 -11 4 -11 6 0 8 -5 3 -12 -7 -12 -15 -69 -17 -130 -1 -16 -3 -28
-6 -28 -3 0 -6 -24 -8 -53 -5 -80 -7 -91 -15 -104 -4 -6 -3 -14 3 -18 6 -4 7
-11 4 -17 -7 -10 -11 -39 -18 -113 -3 -22 -5 -40 -7 -40 -1 0 -3 -13 -4 -30
-15 -184 -20 -223 -29 -232 -2 -3 -4 15 -3 39 0 24 -3 49 -7 56 -4 7 -2 12 4
12 6 0 8 5 4 11 -7 13 -12 49 -15 124 -1 28 -7 53 -13 57 -7 5 -6 8 3 8 9 0
10 4 4 13 -6 6 -11 28 -11 47 0 19 -3 62 -7 95 -3 33 -6 79 -6 102 -1 29 -5
41 -13 36 -7 -4 -6 -1 1 9 7 8 10 18 6 22 -4 3 -8 14 -10 24 -4 29 -15 124
-18 172 -2 25 -4 45 -5 45 -2 0 -7 35 -11 85 -1 19 -6 40 -11 47 -5 6 -5 14 2
18 6 3 7 12 3 18 -7 11 -11 47 -16 149 -1 25 -5 44 -10 41 -4 -2 -7 8 -7 24 1
33 -8 149 -14 178 -3 11 -5 35 -5 54 -1 19 -4 31 -7 28 -4 -3 -15 -2 -25 3
-12 7 -19 6 -22 -3 -4 -8 -6 -8 -6 0 -1 6 -10 9 -23 5 -16 -4 -19 -2 -13 9 7
12 6 12 -7 1 -17 -13 -66 -13 -85 0 -6 5 -14 5 -17 -1z"/>
<path d="M3400 3384 c0 -6 -29 -10 -77 -9 -108 1 -116 -2 -111 -37 3 -16 0
-31 -5 -35 -5 -3 -3 -10 4 -15 10 -6 10 -11 3 -14 -7 -3 -9 -18 -4 -45 4 -23
3 -42 -2 -45 -6 -4 -5 -10 3 -16 11 -7 11 -11 1 -15 -6 -2 -10 -9 -6 -14 7
-13 7 -546 -1 -558 -3 -6 -3 -11 2 -11 10 0 8 -93 -1 -109 -4 -6 -4 -11 1 -11
10 0 8 -93 -1 -109 -4 -6 -4 -11 1 -11 10 0 8 -93 -1 -109 -4 -6 -4 -11 1 -11
4 0 7 -105 6 -233 -2 -271 -4 -316 -15 -323 -5 -3 -6 -10 -3 -15 4 -5 1 -9 -4
-9 -6 0 -11 -5 -11 -11 0 -6 -7 -17 -15 -25 -8 -9 -15 -12 -15 -8 0 3 -7 1
-15 -6 -8 -6 -30 -12 -50 -13 -19 -1 -35 -5 -35 -11 0 -6 -5 -5 -12 2 -8 8
-17 8 -31 1 -11 -6 -17 -7 -14 -2 4 6 -16 9 -46 9 l-52 -1 0 -57 c1 -32 -3
-58 -8 -58 -4 0 -5 -5 -1 -11 3 -6 6 -35 7 -65 0 -29 3 -51 8 -49 4 3 10 1 13
-4 7 -11 315 -11 322 0 3 5 10 7 15 4 5 -4 9 -1 9 4 0 6 11 11 24 11 14 0 31
6 38 13 7 6 25 18 39 25 14 8 37 32 50 54 13 21 29 45 36 52 6 7 14 28 16 47
3 19 6 34 7 34 1 0 4 18 5 40 2 22 4 42 5 45 8 14 4 56 -5 62 -7 5 -7 8 1 8 9
0 12 57 4 85 -1 6 -1 12 0 15 8 20 5 130 -4 130 -7 0 -8 3 -1 8 14 9 14 1393
1 1408 -6 6 -21 8 -34 6 -14 -3 -28 1 -33 9 -5 8 -9 9 -9 3z"/>
<path d="M1115 700 c-3 -5 3 -10 14 -10 13 0 21 -7 21 -16 0 -10 5 -14 16 -10
8 3 12 2 9 -4 -3 -6 1 -10 10 -10 9 0 13 -4 10 -10 -3 -5 -2 -10 4 -10 6 0 21
-11 35 -25 14 -14 23 -25 20 -25 -4 0 16 -23 89 -100 15 -16 27 -32 27 -35 0
-8 27 -35 34 -35 2 0 4 9 3 19 0 11 -4 18 -8 16 -3 -3 -12 7 -19 20 -7 14 -20
25 -27 25 -8 0 -11 5 -8 10 3 6 1 10 -4 10 -6 0 -11 6 -11 13 0 7 -8 20 -17
29 -10 8 -44 43 -76 77 -32 33 -65 61 -73 61 -8 0 -14 5 -14 10 0 6 -6 10 -14
10 -8 0 -18 -4 -21 -10z"/>
<path d="M2186 202 c-16 -26 70 -51 92 -27 4 4 0 6 -8 3 -8 -3 -21 1 -28 9 -8
7 -18 11 -23 8 -5 -4 -9 -1 -9 4 0 13 -17 15 -24 3z"/>
</g>
</svg>
